<svg width="20" height="18" xmlns="http://www.w3.org/2000/svg"><path d="M18.206 6.216a1.094 1.094 0 01.605 1.866l-3.612 3.52.854 4.974c.154.899-.793 1.569-1.586 1.152L10 15.38l-4.467 2.348c-.793.42-1.74-.253-1.586-1.152l.854-4.973-3.613-3.52c-.649-.633-.29-1.737.605-1.867l4.994-.728L9.02.963c.403-.817 1.562-.807 1.962 0l2.232 4.525 4.993.728zm-4.18 5.004l4.023-3.924-5.56-.807L10 1.448 7.512 6.489l-5.561.807 4.026 3.927-.95 5.537L10 14.146l4.977 2.611-.95-5.537z" fill="#0E1116" fill-rule="evenodd" fill-opacity=".2"/></svg>